<?xml version="1.0" encoding="UTF-8" standalone="no"?>
<!-- Created with Inkscape (http://www.inkscape.org/) -->
<svg
   xmlns:svg="http://www.w3.org/2000/svg"
   xmlns="http://www.w3.org/2000/svg"
   version="1.0"
   width="338.12991"
   height="286.68268"
   id="svg2">
  <defs
     id="defs5" />
  <path
     d="M 59.243077,0 C 55.968737,0 61.691557,6.810488 82.868077,28.09375 L 106.80558,52.15625 L 99.118077,55.96875 C 89.460897,60.73537 85.962617,63.4166 75.774327,73.8125 C 65.560317,84.23465 63.289067,87.51792 58.243077,99.15625 C 47.041337,127.94562 46.31516,161.13717 54.524327,190.84375 C 71.605101,237.62233 92.762235,254.79291 128.43058,273.40625 C 141.18086,279.83604 145.81374,281.51565 159.93058,284.96875 C 166.69489,286.62337 170.55643,286.88521 184.93058,286.5625 C 209.65941,286.00732 220.16263,283.57974 239.93058,273.90625 C 259.86112,264.15319 272.02972,254.51874 279.30558,242.71875 C 283.33237,236.18809 284.13392,235.70943 287.27433,238.03125 C 290.41339,240.35205 296.16379,241.52348 299.86808,240.59375 C 301.98886,240.06147 302.43058,239.39196 302.43058,236.53125 C 302.43058,233.00762 298.72223,225.20532 295.21183,221.34375 C 293.5422,219.5071 293.44559,218.84117 294.49308,216.84375 C 296.4777,213.05939 307.90635,198.81105 312.08683,194.90625 C 315.76991,191.46606 328.20533,183.83411 332.21183,182.5625 C 335.78014,181.42997 338.73207,177.35106 338.02433,174.53125 C 336.84989,169.8519 333.71953,167.70177 329.05558,168.34375 C 323.886,169.05531 319.57752,171.12568 311.93058,176.59375 C 301.94019,183.73754 287.76487,198.53462 284.05558,205.71875 L 282.39933,208.96875 L 277.93058,206.78125 C 275.46391,205.58285 273.43058,204.27612 273.43058,203.875 C 273.43058,203.47388 272.80768,202.53927 272.05558,201.8125 C 271.30348,201.08571 263.14763,193.3 253.93058,184.5 C 244.71353,175.7 233.9493,165.35 229.99308,161.5 C 226.03688,157.65 214.95833,146.93745 205.39933,137.6875 C 195.84033,128.43754 188.46462,120.56254 188.99308,120.1875 C 189.52156,119.81245 191.74984,118.31935 193.96183,116.875 C 200.27555,112.75237 209.38349,104.02212 210.02433,101.46875 C 211.62011,95.11065 206.74635,91.77857 200.49308,94.96875 C 198.37831,96.04763 196.0192,97.5104 195.27433,98.21875 C 194.52945,98.9271 191.23058,101.29 187.93058,103.46875 C 184.63058,105.6475 181.00046,108.24062 179.86808,109.21875 C 177.86694,110.94727 177.71505,110.88773 174.46183,107.53125 C 171.23886,104.20599 171.10784,103.78699 170.99308,95.78125 C 170.86213,86.64673 169.1893,82.40541 164.24308,78.71875 C 160.54869,75.96515 153.38636,74.98478 149.33683,76.6875 C 147.57306,77.42911 145.95982,77.84172 145.74308,77.625 C 145.52636,77.40827 145.26188,73.39316 145.14933,68.6875 C 144.95781,60.68043 144.73819,59.92342 141.93058,56.96875 C 136.65437,51.41618 131.95057,49.64638 123.05558,49.8125 L 115.18058,49.9375 L 104.55558,39.5625 C 98.713827,33.85822 88.363327,23.77292 81.555577,17.125 C 70.672197,6.497117 62.218047,0 59.243077,0 z M 117.68058,63.75 L 123.99308,70.625 L 130.30558,77.5 L 129.74308,84.5 C 128.72609,97.2282 133.02707,102.58991 142.24308,100.125 C 144.81281,99.4377 147.65178,98.22418 148.55558,97.40625 C 150.03451,96.06784 150.61509,96.35175 154.30558,100.21875 C 156.58947,102.61188 158.18424,105.16455 157.93058,106 C 157.6801,106.825 157.3982,110.2184 157.30558,113.53125 C 156.94419,126.45722 164.28101,131.91039 175.99308,127.4375 L 180.08683,125.84375 L 187.02433,133.1875 C 192.89424,139.40865 255.38119,202.88425 262.21183,209.5625 C 263.47483,210.79733 265.75675,214.21794 267.27433,217.15625 C 268.79191,220.09455 270.67648,223.5187 271.46183,224.75 C 272.72465,226.7299 272.6684,227.38463 271.02433,230.4375 C 269.21182,233.80314 259.45516,243.90753 252.43058,249.6875 C 239.39768,260.41127 217.77024,269.85905 201.43058,271.96875 C 175.0536,275.37443 151.89563,269.76936 120.93058,252.5 C 103.38235,242.71327 85.387407,222.82476 76.149327,203 C 63.281048,173.05886 61.222981,135.83377 72.899327,105.09375 C 76.477587,96.59216 84.660647,85.17649 91.836827,78.71875 C 93.531817,77.19346 95.830577,75.13303 96.930577,74.125 C 99.713387,71.57485 109.15485,66.47219 113.80558,65 L 117.68058,63.75 z M 275.27433,213.15625 C 275.69928,213.13861 276.3347,213.49787 277.14933,214.3125 C 278.38685,215.55002 278.56243,216.27441 277.74308,217.09375 C 276.92375,217.91308 276.2934,217.64347 275.43058,216.03125 C 274.48394,214.26244 274.56607,213.18565 275.27433,213.15625 z M 289.49308,226.5625 C 290.10039,226.46542 290.84513,226.93732 291.43058,228.03125 C 292.04385,229.17715 292.41625,230.51469 292.24308,231 C 291.77486,232.31221 288.43058,230.11707 288.43058,228.5 C 288.43058,227.31249 288.88577,226.65958 289.49308,226.5625 z"
     id="path2426"
     style="fill:#000000" />
  <path
     d="M 123.09375,53.0625 C 120.72053,53.050458 119.4375,53.327262 119.4375,53.84375 C 119.4375,55.493771 126.50919,61.98876 130.5625,64.0625 C 135.19734,66.433741 135.8267,69.01904 133.9375,78 C 131.87212,87.81845 132.00744,92.20622 134.5,95.375 C 136.91789,98.448847 140.91329,98.82554 145.53125,96.4375 C 149.25495,94.511902 148.90344,93.02554 144.125,90.65625 C 139.93106,88.576769 139.85649,88.22494 141.9375,78.25 C 142.77081,74.255658 143.19865,69.75566 142.875,68.25 C 140.72032,58.226058 135.72607,53.81875 125.8125,53.1875 C 124.78416,53.12202 123.88482,53.066514 123.09375,53.0625 z M 108.59375,54.75 L 104.125,56.28125 C 89.071368,62.78038 77.074161,75.086628 67.125,87.90625 C 44.374268,127.99995 48.691128,184.37078 73.28125,222.90625 C 74.795163,224.87866 76.72995,227.625 77.59375,229 C 99.618621,258.32984 132.78319,275.78203 167.9375,283.34375 C 174.12473,284.65056 197.55046,283.85075 206.4375,282.03125 C 219.87678,279.27974 225.66909,277.39421 235.9375,272.40625 C 249.83281,265.6565 256.44201,261.24869 267.25,251.5 C 272.17224,247.0602 280.4375,236.24972 280.4375,234.25 C 280.43751,233.77324 279.09857,232.39248 277.46875,231.1875 L 274.5,229 L 273.3125,231.25 C 266.08282,244.99142 240.88182,263.92215 219.875,271.375 C 179.77376,284.52849 139.94638,270.23179 106.4375,247.65625 C 104.5125,246.3578 98.8875,241.03069 93.9375,235.84375 C 53.440536,192.06322 44.197738,88.871678 112.8125,63 C 115.63452,63 115.34927,61.30778 111.96875,58.03125 L 108.59375,54.75 z M 154.71875,78.03125 C 152.12965,78.005443 147.4375,79.97668 147.4375,81.09375 C 147.43751,82.689708 155.00484,88.99165 156.9375,89 C 160.73249,89.016377 161.48688,92.09157 160.8125,104.8125 C 160.2752,114.94754 160.42845,117.11873 161.9375,120.0625 C 162.9055,121.9508 164.20175,123.84592 164.8125,124.25 C 166.39878,125.29948 174.65684,125.13756 176.40625,124.03125 C 177.64898,123.24536 177.49087,122.71495 175.46875,120.5625 C 174.14979,119.15853 172.32514,118 171.40625,118 C 170.48737,118 168.94854,117.1139 167.96875,116.03125 C 166.50311,114.41173 166.30467,113.0379 166.84375,108.28125 C 168.69964,91.90539 168.69949,90.98872 166.9375,86.375 C 165.52993,82.68934 164.39208,81.41821 161.0625,79.90625 C 158.79226,78.87533 155.93037,78.04333 154.71875,78.03125 z M 203.90625,96.5625 C 203.19269,96.646728 202.24564,97.145845 200.59375,98.125 C 198.58325,99.316714 195.3625,101.46484 193.4375,102.90625 C 191.51251,104.34765 187.98658,106.84141 185.625,108.4375 C 183.2634,110.03359 181.08979,111.75077 180.78125,112.25 C 180.10836,113.33877 184.28974,118 185.9375,118 C 186.57544,118 189.58402,116.25521 192.625,114.125 C 199.20581,109.51512 205.91946,103.17705 206.75,100.78125 C 207.07815,99.834672 206.63488,98.35363 205.78125,97.5 C 205.07988,96.798624 204.61981,96.478272 203.90625,96.5625 z M 330.9375,170.96875 C 329.28506,171.03126 326.89319,171.99178 322.96875,173.90625 C 316.04062,177.28601 311.3428,180.64318 302.59375,188.5 C 297.30209,193.25202 284.12821,210.5427 281.21875,216.53125 C 279.19708,220.69248 279.17276,220.79467 281.03125,223.34375 C 282.07048,224.76914 283.43769,225.95146 284.0625,225.96875 C 284.68731,225.98603 287.1261,222.7375 289.46875,218.75 C 301.25698,198.68489 314.25801,186.32678 329.78125,180.46875 C 335.26424,178.39962 336.24393,176.90249 334.40625,173.46875 C 333.47986,171.73779 332.58994,170.90624 330.9375,170.96875 z"
     id="path2424"
     style="fill:#f08080" />
  <path
     d="M 63.711827,4.1875 C 63.514537,4.597336 70.726037,12.44139 85.836827,28.0625 C 93.581047,36.06825 106.65802,49.68075 114.89933,58.3125 C 123.14063,66.94425 130.45314,74 131.14933,74 C 131.84551,74 132.43058,73.17859 132.43058,72.15625 C 132.43058,71.03676 119.60364,57.70496 100.18058,38.65625 C 76.479307,15.41178 63.965487,3.660568 63.711827,4.1875 z M 145.27433,83.1875 C 144.86872,83.20108 144.37559,83.71624 144.08683,84.46875 C 143.68558,85.51436 145.81296,88.50724 150.55558,93.5 C 157.58082,100.89575 160.15365,102.06107 158.96183,97.3125 C 158.43797,95.2253 147.75408,84.10222 145.43058,83.21875 C 145.37774,83.19866 145.33227,83.18556 145.27433,83.1875 z M 170.64933,107 C 169.76467,107 169.41094,107.99921 169.61808,109.9375 C 169.86975,112.29247 179.48665,122.53609 218.43058,161.96875 C 261.82798,205.91075 267.2345,211.75152 270.11808,217.6875 C 274.85839,227.44563 281.9421,234.08488 291.30558,237.53125 C 295.66717,239.13658 295.84234,239.17161 297.83683,238.40625 C 298.70682,238.07241 299.43058,236.89241 299.43058,235.78125 C 299.43058,233.43202 293.51786,221 292.39933,221 C 290.38228,221 290.75414,224.53558 293.21183,228.9375 C 294.7124,231.62515 295.61077,234.13231 295.24308,234.5 C 294.17388,235.5692 285.82368,230.20712 281.18058,225.46875 C 276.86489,221.06454 271.67873,212.43934 272.71183,211.40625 C 273.02144,211.09664 274.16338,211.31169 275.27433,211.90625 C 278.05292,213.3933 280.11808,213.27267 280.77433,211.5625 C 281.14798,210.58878 279.84813,209.40938 276.74308,207.90625 C 270.27331,204.77428 251.03004,186.46278 195.11808,130.25 C 182.399,117.4625 171.38538,107 170.64933,107 z"
     id="path2420"
     style="fill:#dcdcdc" />
  <path
     d="M 263.87904,97.96352 C 259.95426,96.4982 257.97474,93.08031 257.83715,87.53145 C 257.76035,84.43448 257.02493,81.25894 256.06814,79.89294 C 251.33206,73.13122 258.77036,61 267.65242,61 C 269.49782,61 272.79035,60.06871 274.96914,58.93046 C 277.95858,57.36872 280.08287,56.98755 283.62682,57.37698 C 295.82829,58.71776 301.59783,67.79741 298.48735,80.76334 C 296.11503,90.65229 288.38332,95.93106 277.98772,94.75933 C 275.10236,94.43411 273.38801,94.66855 273.0965,95.42821 C 272.45486,97.10031 266.18564,98.82469 263.87904,97.96352 z"
     id="path2398"
     style="fill:#000000" />
  <path
     d="M 279.9375,60.03125 C 278.59325,60.069523 277.39258,60.35308 276.46875,60.9375 C 275.30709,61.672371 275.90807,62.65267 279.46875,65.8125 C 283.75651,69.617554 283.9375,69.97728 283.9375,75.46875 C 283.93751,80.25543 283.54408,81.48917 281.5625,83.09375 C 280.26407,84.145162 277.91347,85 276.34375,85 C 272.86885,85 270.57855,88.28496 272.46875,90.5625 C 274.03563,92.450481 283.61427,92.47386 287.25,90.59375 C 296.70071,85.706592 299.20607,73.35134 292.3125,65.5 C 289.31545,62.086542 283.97026,59.91643 279.9375,60.03125 z M 268.625,64 C 264.87346,64 259.31429,67.78329 258.21875,71.09375 C 257.70284,72.652762 257.76731,74.77664 258.375,76.375 L 259.40625,79.03125 L 262.96875,77.09375 C 265.71938,75.619499 267.27364,75.38814 269.625,76.0625 C 271.31208,76.546347 272.78323,77.06428 272.875,77.21875 C 276.74122,83.726741 277.38764,84.04986 280.4375,81 C 282.85562,78.58189 283.06986,73.35236 280.875,70.21875 C 278.84478,67.320208 272.31155,64 268.625,64 z M 267.90625,78.40625 C 266.29211,78.365155 264.55398,79.059815 263,80.5 C 260.50506,82.81222 260.24687,83.65329 260.6875,87.5625 C 261.30634,93.052827 262.84798,95 266.5625,95 C 269.27426,95 269.4375,94.75687 269.4375,90.8125 C 269.43751,88.004857 270.09744,85.92642 271.4375,84.5 C 273.08588,82.745379 273.21702,82.09766 272.1875,80.75 C 271.03465,79.240904 269.52039,78.447345 267.90625,78.40625 z"
     id="path2396"
     style="fill:#f08080" />
  <text
     x="9.6572561"
     y="179.44427"
     id="text2436"
     xml:space="preserve"
     style="font-size:48px;font-style:normal;font-variant:normal;font-weight:bold;font-stretch:normal;text-align:start;line-height:125%;writing-mode:lr-tb;text-anchor:start;fill:#000000;fill-opacity:1;stroke:none;stroke-width:1px;stroke-linecap:butt;stroke-linejoin:miter;stroke-opacity:1;font-family:Courier 10 Pitch;-inkscape-font-specification:Courier 10 Pitch Bold"><tspan
       x="9.6572561"
       y="179.44427"
       id="tspan2438">A</tspan></text>
  <text
     x="257.97525"
     y="43.666504"
     id="text2440"
     xml:space="preserve"
     style="font-size:48px;font-style:normal;font-variant:normal;font-weight:bold;font-stretch:normal;text-align:start;line-height:125%;writing-mode:lr-tb;text-anchor:start;fill:#000000;fill-opacity:1;stroke:none;stroke-width:1px;stroke-linecap:butt;stroke-linejoin:miter;stroke-opacity:1;font-family:Courier 10 Pitch;-inkscape-font-specification:Courier 10 Pitch Bold"><tspan
       x="257.97525"
       y="43.666504"
       id="tspan2442">B</tspan></text>
</svg>
