<?xml version="1.0" standalone="no"?>
<!DOCTYPE svg PUBLIC "-//W3C//DTD SVG 20010904//EN"
 "http://www.w3.org/TR/2001/REC-SVG-20010904/DTD/svg10.dtd">
<svg version="1.0" xmlns="http://www.w3.org/2000/svg"
 width="1280.000000pt" height="996.000000pt" viewBox="0 0 1280.000000 996.000000"
 preserveAspectRatio="xMidYMid meet">
<g transform="translate(0.000000,996.000000) scale(0.100000,-0.100000)"
fill="#000000" stroke="none">
<path d="M1715 9954 c-508 -51 -775 -160 -1070 -436 l-95 -90 0 -166 c0 -174
-10 -244 -50 -362 -41 -121 -171 -365 -260 -490 -98 -136 -206 -408 -231 -580
-14 -100 -6 -844 10 -863 5 -7 23 -61 40 -120 112 -384 273 -678 735 -1337 63
-91 120 -175 127 -187 10 -18 6 -36 -25 -112 -107 -268 -82 -599 68 -900 54
-109 81 -151 173 -274 40 -54 73 -106 73 -116 0 -22 -60 -79 -130 -123 l-56
-35 -56 -145 c-87 -220 -87 -248 -8 -332 l50 -53 -74 -219 c-41 -120 -170
-500 -286 -844 -117 -344 -290 -859 -385 -1145 -199 -597 -192 -546 -90 -642
61 -58 119 -81 232 -92 87 -10 99 -3 119 66 38 132 106 231 189 276 58 32 196
29 325 -7 292 -81 368 -98 465 -103 80 -5 103 -3 112 9 12 14 203 809 203 845
0 17 -11 22 -72 32 -128 21 -198 73 -214 158 -5 25 6 86 35 207 23 98 41 197
41 230 0 52 -3 60 -41 101 -41 44 -72 60 -181 90 -43 12 -58 20 -58 34 0 27
203 532 245 609 54 98 111 171 141 178 16 4 39 0 60 -9 18 -9 40 -14 48 -11
22 8 127 143 147 189 44 101 34 169 -48 307 -78 133 -111 200 -123 254 -14 60
-5 70 110 119 192 82 361 229 630 545 87 102 165 192 174 199 14 12 36 -8 177
-153 275 -283 480 -430 747 -536 179 -71 271 -89 506 -100 115 -6 213 -13 217
-16 5 -2 -5 -43 -22 -91 -51 -143 -69 -229 -69 -325 0 -75 5 -101 30 -166 17
-42 39 -88 49 -102 19 -24 21 -24 78 -12 32 7 68 15 79 18 32 9 52 -19 142
-194 184 -361 300 -669 553 -1467 211 -668 293 -902 445 -1282 66 -164 70
-172 100 -178 17 -4 138 -5 270 -3 l239 3 87 50 88 50 0 85 c1 304 115 453
420 544 47 14 168 44 269 66 199 45 288 70 365 103 l48 20 -5 146 c-3 101 -11
168 -24 216 -23 81 -85 229 -111 263 l-18 23 -76 -35 c-154 -70 -236 -81 -332
-45 -104 39 -169 124 -292 388 -96 204 -150 304 -185 337 -33 32 -28 33 -204
-40 -166 -68 -216 -79 -364 -74 -115 4 -131 7 -183 33 -54 27 -57 31 -68 79
-7 28 -61 197 -121 376 -157 473 -163 497 -164 710 0 162 2 182 27 270 31 104
33 127 18 182 -18 65 -53 93 -210 173 -82 41 -154 84 -160 95 -33 61 24 207
118 298 80 79 166 121 435 211 280 95 345 124 450 198 44 32 84 57 89 55 5 -1
59 -25 121 -53 62 -28 204 -87 317 -131 351 -136 499 -218 585 -322 19 -23 64
-94 101 -157 36 -63 78 -127 94 -144 15 -16 43 -55 61 -85 89 -149 111 -157
257 -99 160 64 247 78 375 60 193 -27 331 -96 747 -372 179 -118 347 -228 374
-244 55 -32 53 -13 21 -205 -33 -204 12 -320 147 -380 56 -24 63 -42 62 -143
0 -53 -5 -73 -22 -95 -127 -160 -98 -241 143 -400 55 -36 101 -66 102 -67 1 0
7 -50 12 -109 13 -133 37 -191 110 -262 66 -64 160 -114 384 -204 207 -82 281
-118 356 -171 30 -22 60 -39 67 -39 17 0 75 70 252 307 84 111 161 207 171
213 11 5 55 10 98 10 72 0 86 -4 185 -49 123 -57 155 -65 185 -48 21 12 132
165 185 257 46 80 96 213 107 287 22 142 8 374 -30 490 -9 29 -144 109 -1658
988 l-1649 956 -10 42 c-6 23 -23 117 -38 209 l-27 168 -126 -6 c-266 -14
-431 46 -890 324 -253 153 -413 234 -551 282 -52 18 -98 36 -102 40 -5 3 -21
95 -38 204 -56 369 -104 553 -219 838 -17 42 -31 85 -31 95 0 11 31 40 86 77
216 151 321 324 454 751 124 402 180 544 223 567 29 15 100 4 135 -21 20 -14
50 -60 87 -132 42 -82 63 -113 83 -121 17 -7 99 -12 212 -12 204 -1 297 14
400 62 104 49 158 115 210 259 12 35 28 67 34 72 14 12 126 22 691 66 393 31
579 46 1125 95 63 5 138 10 166 10 51 0 51 0 87 -53 98 -148 131 -273 148
-561 12 -219 20 -246 89 -310 89 -83 113 -91 290 -91 85 0 239 4 342 9 l187 9
-2 226 -2 226 30 54 c70 126 215 177 336 116 134 -69 189 -191 189 -426 0 -59
4 -110 9 -113 16 -10 315 14 410 34 51 10 126 35 167 54 85 40 174 118 174
151 0 12 -18 98 -39 191 -66 286 -74 339 -75 489 l-1 141 42 64 c135 209 158
383 103 775 -13 94 -25 171 -26 173 -3 5 -1065 -86 -2094 -178 -505 -46 -659
-64 -1380 -165 -414 -58 -624 -72 -819 -56 -231 20 -392 59 -569 138 l-103 46
-127 -26 c-70 -14 -149 -29 -175 -32 -84 -11 -160 -35 -194 -61 -21 -16 -47
-53 -68 -98 -53 -111 -133 -156 -280 -156 -171 0 -364 108 -582 325 l-102 102
-303 29 c-258 25 -348 29 -603 29 -256 0 -313 -3 -385 -19 -134 -29 -248 -70
-378 -135 -97 -49 -126 -59 -144 -52 -13 5 -140 91 -283 191 -296 207 -407
276 -532 330 -125 53 -196 68 -383 80 -91 6 -336 22 -545 36 -346 22 -881 38
-980 28z m386 -160 c27 -20 62 -63 100 -125 32 -52 75 -121 96 -154 36 -57 38
-64 37 -138 -1 -43 -5 -81 -9 -85 -7 -7 -344 331 -429 431 -42 49 -47 59 -35
73 22 27 51 34 126 31 62 -2 77 -6 114 -33z m919 -19 c334 -52 634 -155 840
-290 130 -85 380 -349 380 -401 0 -25 -101 16 -305 121 -389 200 -572 272
-835 326 -71 15 -153 22 -328 26 l-232 6 -55 59 c-66 71 -72 108 -27 153 l27
28 215 -6 c119 -3 262 -13 320 -22z m-1404 -76 c108 -61 273 -186 360 -274
132 -133 205 -266 234 -424 12 -69 15 -207 4 -235 -8 -20 -146 -116 -167 -116
-21 0 -27 22 -27 101 0 79 -19 109 -68 109 -52 0 -64 -27 -78 -174 -7 -74 -18
-144 -24 -156 -14 -26 -91 -63 -114 -54 -9 3 -18 16 -21 28 -105 484 -220 703
-490 934 -84 71 -76 76 135 82 92 3 171 8 174 11 3 3 -1 43 -9 89 -23 131 -15
139 91 79z m10968 -298 c22 -35 -305 -148 -505 -175 -112 -15 -288 -31 -922
-81 -174 -14 -561 -52 -860 -85 -1715 -188 -2147 -232 -2162 -220 -18 15 -20
70 -2 92 12 17 121 33 1122 157 1740 217 3298 363 3329 312z m-6769 -55 c387
-73 682 -250 866 -522 102 -152 151 -301 171 -526 13 -142 2 -340 -28 -478
-64 -299 -229 -607 -373 -694 -33 -21 -61 -42 -61 -47 0 -14 -72 -58 -107 -65
-30 -6 -33 -4 -56 42 -32 65 -64 163 -89 276 -19 86 -21 139 -28 668 -6 476
-10 591 -24 665 -33 177 -88 305 -180 421 -61 77 -109 120 -209 186 l-67 45
-200 5 c-188 5 -223 9 -207 25 28 27 443 27 592 -1z m-4772 -21 c93 -32 166
-77 249 -154 122 -112 167 -198 168 -318 0 -28 9 -113 21 -190 23 -157 18
-214 -26 -289 -37 -63 -58 -74 -141 -74 -111 0 -104 -10 -104 160 0 273 -55
412 -235 599 l-85 88 -123 7 c-67 4 -126 11 -131 16 -13 13 38 95 78 125 79
60 210 72 329 30z m1907 -155 c353 -70 514 -125 682 -237 85 -56 220 -200 276
-293 l44 -73 -37 -111 c-72 -215 -62 -311 78 -721 l92 -270 0 -125 c0 -154 -8
-174 -151 -376 -113 -160 -218 -270 -354 -371 -76 -57 -672 -443 -684 -443 -2
0 -19 24 -39 54 -157 237 -436 400 -656 384 -67 -5 -400 -110 -809 -255 -100
-36 -189 -63 -197 -59 -8 3 -53 54 -100 113 -140 176 -225 369 -272 616 -24
128 -24 492 1 667 21 152 61 369 79 430 12 42 15 45 49 48 20 2 97 -6 170 -17
220 -34 400 -44 530 -31 246 24 436 95 548 206 94 91 138 191 201 454 22 91
51 200 65 243 27 80 90 186 127 212 27 19 38 18 357 -45z m4890 11 l65 -6 37
-215 c20 -118 44 -246 53 -285 9 -39 18 -140 22 -230 5 -155 5 -162 -20 -222
-34 -84 -81 -147 -136 -184 -44 -30 -49 -31 -136 -27 -76 3 -98 8 -143 33 -65
35 -107 81 -140 154 -24 53 -25 59 -19 205 7 180 56 722 68 753 7 18 17 23 66
26 96 6 214 5 283 -2z m-3080 -30 c0 -5 -33 -33 -72 -61 -224 -157 -354 -372
-414 -685 -30 -152 -20 -492 17 -641 6 -23 31 -65 56 -95 89 -106 99 -136 62
-183 -30 -38 -53 -33 -99 25 -160 203 -229 485 -185 769 40 268 143 480 329
678 101 107 306 237 306 193z m873 -30 c105 -27 189 -74 244 -135 60 -66 81
-116 95 -222 17 -121 2 -200 -78 -439 -59 -177 -67 -209 -67 -280 -1 -99 13
-130 117 -249 41 -47 80 -102 88 -123 9 -26 13 -90 13 -201 0 -206 9 -196
-173 -205 -171 -9 -267 4 -360 48 -100 47 -168 118 -220 226 -51 107 -73 194
-117 481 -77 494 -113 592 -290 786 -41 45 -75 86 -75 91 0 11 78 87 117 113
182 124 475 169 706 109z m7052 -133 c39 -81 43 -104 18 -112 -10 -3 -72 -10
-138 -16 -358 -34 -588 -70 -1082 -171 -191 -40 -383 -79 -425 -87 -43 -9 -78
-19 -78 -24 0 -16 55 -42 114 -55 74 -15 394 -17 551 -3 61 5 205 21 320 35
116 14 281 31 367 38 l158 12 10 -50 c24 -120 51 -299 62 -412 24 -253 -38
-377 -204 -405 -126 -22 -186 21 -323 225 -101 152 -164 222 -233 258 -39 20
-54 21 -140 16 -116 -6 -145 -16 -189 -65 -44 -49 -58 -75 -94 -179 -77 -218
-167 -340 -282 -382 -72 -26 -235 -29 -314 -6 -50 15 -51 16 -66 72 -9 32 -34
168 -56 303 -22 135 -47 272 -56 305 -29 112 -104 244 -158 280 -26 17 -246
-4 -1686 -160 -278 -30 -508 -55 -512 -55 -17 0 -71 55 -89 91 -34 65 -21 119
40 167 58 45 84 51 266 62 627 35 932 65 2174 210 855 100 1158 132 1465 155
271 19 298 21 433 23 l113 2 34 -72z m-8797 -15 c33 -17 55 -35 58 -49 8 -33
1 -77 -14 -82 -17 -5 -142 119 -142 141 0 25 36 21 98 -10z m3303 -90 c9 -10
14 -41 14 -80 0 -57 -3 -67 -25 -85 -22 -18 -33 -19 -110 -13 -47 4 -91 12
-97 17 -17 14 -17 150 -1 166 8 8 47 12 109 12 78 0 99 -3 110 -17z m-2507
-205 c36 -62 120 -262 166 -394 47 -135 92 -316 117 -469 25 -155 25 -561 0
-725 -34 -217 -94 -435 -184 -663 -81 -205 -104 -243 -345 -552 -66 -84 -117
-119 -202 -134 -68 -13 -106 -6 -106 18 0 10 46 94 102 187 113 188 268 498
321 644 63 171 123 390 164 605 20 107 29 510 14 653 -21 196 -64 366 -151
601 -28 74 -50 141 -50 150 0 18 99 121 117 121 7 0 23 -19 37 -42z m-4092
-154 c-2 -10 -19 -69 -37 -130 -42 -139 -79 -307 -99 -445 -22 -145 -22 -689
-1 -837 76 -535 307 -992 616 -1222 174 -129 508 -325 698 -411 240 -107 426
-155 648 -166 172 -8 185 -3 214 84 19 57 21 81 17 192 -3 82 -11 143 -22 176
-45 130 -149 304 -267 446 l-36 44 -174 -18 c-96 -10 -224 -23 -286 -30 -62
-6 -115 -8 -119 -4 -22 22 81 79 194 108 141 36 419 22 514 -27 47 -24 197
-180 237 -247 88 -149 117 -286 107 -517 -3 -85 -16 -222 -29 -305 l-23 -150
-103 -189 c-254 -466 -404 -648 -628 -760 -110 -55 -180 -71 -313 -71 -115 1
-131 3 -201 31 -104 42 -181 95 -269 184 -80 82 -126 150 -169 252 -26 63 -26
64 -29 371 l-3 307 70 0 c62 0 71 -2 71 -19 0 -61 23 -284 36 -345 17 -81 66
-162 201 -331 129 -162 153 -177 298 -191 104 -10 205 10 305 58 72 35 101 57
191 147 60 61 145 161 198 236 52 72 116 159 142 194 44 58 49 69 49 116 l0
53 -197 0 c-483 -2 -848 104 -1273 369 -149 93 -260 183 -352 285 -272 302
-431 636 -582 1218 l-42 165 7 245 c13 404 53 620 154 826 51 106 137 227 201
285 55 50 92 60 86 23z m6610 -46 c52 -3 57 -5 62 -29 7 -35 -10 -101 -29
-115 -23 -17 -112 -37 -130 -30 -12 4 -15 25 -15 96 l0 92 28 -6 c15 -3 53 -7
84 -8z m-2749 -385 c46 -49 80 -139 85 -226 l5 -78 -49 3 -49 3 -12 80 c-19
132 -27 245 -16 245 5 0 21 -12 36 -27z m1092 -838 c33 -8 92 -31 132 -51 72
-36 346 -235 416 -302 145 -138 264 -419 291 -682 3 -30 15 -202 26 -381 12
-179 29 -374 39 -434 l18 -108 -57 -76 c-63 -85 -151 -169 -255 -243 -131 -93
-235 -137 -685 -290 l-265 -89 -175 31 c-580 103 -822 198 -1043 409 -223 212
-337 509 -337 877 0 283 56 460 240 769 122 203 193 271 448 426 108 66 138
73 148 33 11 -45 -3 -151 -26 -199 -13 -27 -80 -107 -162 -193 -219 -230 -232
-248 -302 -455 -92 -268 -69 -480 85 -794 81 -164 169 -295 222 -332 23 -16
93 -69 155 -119 159 -126 204 -147 313 -147 103 0 102 -1 199 130 79 106 200
306 370 610 194 347 300 502 484 707 52 59 98 119 102 134 4 14 4 51 0 81 -18
153 -88 224 -418 421 -223 134 -304 204 -281 241 24 39 209 54 318 26z m-174
-404 c211 -73 283 -115 340 -197 47 -68 47 -96 1 -190 -85 -174 -168 -276
-263 -325 -62 -31 -164 -37 -226 -14 -90 35 -172 135 -186 229 -16 102 34 279
126 449 39 71 52 87 71 87 13 0 75 -18 137 -39z m-1986 -735 c46 -20 47 -56 3
-122 -26 -39 -48 -56 -102 -83 -39 -20 -91 -36 -119 -39 -59 -6 -59 -11 8 114
78 142 119 168 210 130z m1642 -95 c82 -65 155 -149 151 -174 -2 -18 -9 -22
-36 -21 -45 3 -116 51 -197 135 -65 67 -68 72 -50 85 34 25 79 17 132 -25z
m-2680 -18 c15 -32 42 -63 80 -93 61 -48 88 -95 64 -110 -42 -25 -677 -23
-693 3 -23 36 2 136 45 183 51 55 88 63 297 64 l185 0 22 -47z m2531 -280
c111 -112 156 -191 157 -278 0 -80 -17 -111 -124 -222 -104 -107 -137 -122
-231 -104 -128 25 -246 116 -302 230 -27 56 -37 183 -17 207 32 39 381 254
411 254 10 0 58 -39 106 -87z m-1504 -39 c-3 -72 -72 -123 -199 -148 -163 -32
-182 -24 -115 47 65 72 207 138 285 134 27 -2 30 -5 29 -33z m140 -234 c34
-41 47 -93 39 -158 -4 -39 -12 -57 -27 -67 -42 -27 -310 -97 -401 -105 -150
-13 -182 1 -168 72 17 94 87 166 193 202 52 17 263 73 300 79 14 2 28 5 32 6
3 0 18 -13 32 -29z m3325 -32 c142 -27 273 -107 415 -252 129 -133 176 -199
176 -247 0 -138 -162 -399 -283 -458 -59 -28 -65 -27 -77 18 -20 74 1 130 104
279 57 83 68 138 41 195 -22 46 -38 51 -86 27 -46 -24 -80 -69 -149 -195 -78
-146 -121 -185 -203 -185 -43 0 -57 15 -57 65 1 55 27 109 119 239 92 131 111
165 111 204 0 42 -55 83 -132 97 -32 6 -38 4 -62 -28 -14 -19 -45 -83 -67
-143 -23 -60 -50 -125 -60 -145 -32 -64 -127 -127 -170 -114 -32 10 -53 63
-52 135 0 80 23 135 121 287 39 60 85 140 104 177 l33 67 60 -6 c33 -3 84 -11
114 -17z m-3044 -390 c95 -24 172 -84 262 -207 63 -85 83 -126 83 -175 0 -28
-8 -41 -47 -76 -59 -52 -158 -111 -255 -153 -68 -29 -81 -31 -188 -32 -147 0
-187 14 -291 106 -83 73 -114 123 -149 237 l-18 62 30 37 c133 168 372 252
573 201z m-1975 -111 c266 -89 327 -106 423 -122 51 -8 49 -33 -8 -94 -54 -57
-145 -104 -259 -133 -66 -17 -101 -19 -215 -15 -151 5 -195 15 -242 55 -43 36
-142 188 -168 257 -27 73 -26 100 5 132 24 24 30 25 102 21 63 -4 128 -22 362
-101z m6327 -73 c17 -44 -41 -269 -103 -399 -83 -176 -246 -367 -367 -430 -73
-38 -80 -31 -73 85 17 313 215 642 443 736 69 28 91 30 100 8z m-5215 -31 c37
-40 148 -212 148 -230 0 -12 -8 -14 -34 -10 -55 9 -186 68 -197 88 -18 34 19
179 46 179 6 0 23 -12 37 -27z m4638 -188 c-61 -175 -105 -254 -130 -229 -6 6
7 45 33 99 65 138 128 258 133 253 2 -3 -14 -58 -36 -123z m-3280 -151 c0 -25
-67 -85 -155 -139 -44 -27 -95 -60 -114 -74 -40 -30 -70 -91 -71 -141 0 -19
-3 -46 -7 -59 -6 -23 -9 -23 -73 -17 -84 7 -210 35 -210 46 0 5 12 18 28 30
37 30 584 370 594 370 4 0 8 -7 8 -16z m4250 -220 c281 -127 1050 -513 1291
-647 529 -295 1007 -610 1369 -901 145 -117 318 -267 324 -282 3 -8 2 -13 -2
-11 -465 265 -3200 1891 -3227 1919 l-20 20 35 -5 c19 -3 123 -45 230 -93z
m-3730 22 c0 -42 -173 -141 -343 -195 -206 -66 -226 -21 -36 83 165 90 379
153 379 112z m3392 -162 c115 -49 735 -365 1008 -514 724 -395 1392 -810 2055
-1275 250 -175 285 -203 285 -220 0 -7 -14 -25 -31 -39 l-30 -26 -42 21 c-23
12 -339 194 -702 404 -363 210 -768 444 -900 520 -558 322 -1062 641 -1480
938 -304 216 -352 272 -163 191z m-3357 -149 c56 -23 54 -40 -6 -102 -71 -71
-117 -97 -213 -118 -92 -21 -156 -10 -156 25 0 40 143 153 239 191 57 22 91
23 136 4z m-3399 -317 c22 -14 93 -74 159 -133 65 -59 136 -115 157 -126 56
-29 71 -69 47 -123 -16 -34 -27 -37 -121 -26 -46 5 -150 17 -232 26 -218 24
-310 62 -343 143 -19 46 -11 133 17 195 31 64 63 77 181 74 85 -3 101 -7 135
-30z m3755 12 c37 -21 24 -58 -48 -129 -77 -77 -152 -118 -283 -155 -88 -26
-263 -60 -362 -72 -53 -6 -59 -4 -83 22 -56 60 -40 108 46 138 30 11 122 48
204 84 249 107 295 121 408 121 54 1 107 -4 118 -9z m19 -786 c75 -170 208
-464 294 -654 338 -738 448 -1024 545 -1415 48 -195 89 -440 94 -566 2 -68 -7
-82 -81 -109 -103 -39 -220 -23 -274 37 -30 33 -84 162 -134 318 -60 189 -75
225 -129 305 -37 53 -51 89 -80 200 -98 367 -152 533 -423 1295 -175 494 -260
751 -264 805 -3 32 0 35 24 38 33 4 27 17 112 -253 133 -422 211 -619 618
-1555 85 -195 174 -400 197 -455 23 -55 57 -127 76 -160 l34 -60 1 46 c0 60
-42 289 -86 458 -50 195 -122 403 -294 846 -231 592 -306 807 -365 1040 -27
109 -32 159 -13 153 6 -2 73 -143 148 -314z m-3875 211 c80 -56 90 2 -88 -500
-47 -132 -157 -447 -245 -700 -299 -861 -482 -1329 -536 -1374 -23 -19 -147
-27 -176 -11 -20 11 -22 17 -16 63 9 68 134 556 198 772 159 536 359 1038 571
1432 125 233 204 353 231 353 7 0 34 -16 61 -35z m8710 -468 c648 -345 1199
-643 1293 -700 50 -29 27 -43 -107 -62 -314 -46 -439 -115 -540 -299 -95 -174
-168 -211 -298 -151 -29 13 -113 61 -185 106 -73 45 -156 93 -184 106 l-53 24
0 89 c0 150 -34 197 -261 355 -192 134 -230 176 -230 256 0 62 34 123 116 209
l72 76 -95 104 c-123 135 -175 199 -167 211 6 10 137 -56 639 -324z m-3612
-627 c16 -12 40 -59 67 -127 87 -220 163 -345 270 -447 114 -108 233 -148 371
-127 37 6 79 15 94 21 72 27 101 -2 112 -114 14 -155 -53 -208 -382 -305 -93
-27 -200 -61 -238 -75 -84 -32 -125 -33 -186 -2 -96 49 -153 116 -197 231 -13
37 -49 165 -79 286 -60 241 -95 339 -151 427 -22 33 -38 70 -38 88 0 64 75
129 174 150 88 19 153 17 183 -6z m-5208 -309 c26 -99 77 -160 296 -353 108
-95 139 -145 139 -223 0 -109 -41 -187 -160 -306 l-66 -67 -182 34 c-100 19
-219 42 -264 52 l-83 17 2 74 c4 135 69 350 198 651 90 212 95 216 120 121z"/>
<path d="M6340 8595 c-19 -14 -51 -48 -70 -76 -31 -46 -35 -60 -38 -128 -4
-104 15 -156 139 -359 138 -227 131 -216 140 -200 17 30 41 259 41 383 -1 186
-38 304 -119 376 -41 35 -49 36 -93 4z"/>
<path d="M6016 5949 c-351 -225 -545 -522 -585 -897 l-7 -74 35 7 c57 10 191
79 256 132 147 119 265 325 341 596 20 71 64 266 64 283 0 13 -35 -2 -104 -47z
m-142 -255 c32 -32 15 -154 -38 -270 -55 -119 -104 -157 -177 -135 -47 14 -48
21 -13 131 50 160 74 200 158 261 45 34 49 34 70 13z"/>
</g>
</svg>
