<?xml version="1.0" standalone="no"?>
<!DOCTYPE svg PUBLIC "-//W3C//DTD SVG 20010904//EN"
 "http://www.w3.org/TR/2001/REC-SVG-20010904/DTD/svg10.dtd">
<svg version="1.0" xmlns="http://www.w3.org/2000/svg"
 width="963.000000pt" height="1280.000000pt" viewBox="0 0 963.000000 1280.000000"
 preserveAspectRatio="xMidYMid meet">
<g transform="translate(0.000000,1280.000000) scale(0.100000,-0.100000)"
fill="#000000" stroke="none">
<path d="M5055 12774 c-75 -25 -115 -59 -115 -98 0 -20 4 -22 28 -18 15 3 39
14 53 25 36 26 105 32 150 13 85 -36 205 -151 250 -241 51 -99 90 -203 114
-298 29 -119 30 -131 10 -187 -8 -24 -13 -45 -10 -48 9 -9 98 84 116 123 24
52 24 72 -2 147 -53 154 -221 424 -312 502 -57 49 -165 107 -194 105 -10 -1
-49 -12 -88 -25z"/>
<path d="M6600 12694 c0 -11 33 -176 74 -365 145 -673 225 -1065 235 -1162 6
-53 18 -116 26 -140 8 -23 15 -57 15 -76 0 -20 63 -194 149 -415 82 -209 539
-1387 1016 -2616 478 -1229 879 -2250 892 -2267 23 -31 28 -33 87 -33 35 0 82
7 106 15 23 8 83 22 133 30 107 18 140 29 185 62 27 20 32 30 32 64 0 43 11
72 41 104 45 50 84 -58 -995 2720 -799 2057 -1024 2626 -1047 2650 -31 33
-376 559 -584 892 -71 114 -142 222 -157 238 -15 17 -47 66 -72 109 -80 134
-136 213 -136 190z m716 -1593 c-10 -16 -36 -13 -36 3 0 17 21 27 34 16 4 -5
5 -13 2 -19z m-206 -86 c0 -2 -9 -9 -20 -15 -16 -9 -20 -8 -20 5 0 8 9 15 20
15 11 0 20 -2 20 -5z m966 -2623 l964 -2482 -20 -39 c-11 -22 -24 -42 -28 -45
-5 -3 -45 88 -90 202 -198 508 -1074 2765 -1414 3642 -239 615 -379 989 -386
1031 -15 84 -16 182 -1 177 6 -2 444 -1121 975 -2486z"/>
<path d="M4545 12667 c-61 -16 -104 -38 -129 -66 -15 -16 -27 -20 -46 -16 -18
4 -34 0 -50 -13 l-22 -18 24 -61 c13 -33 62 -113 108 -177 l84 -118 18 24 c9
12 18 27 18 32 0 4 -27 65 -60 134 -67 139 -67 140 5 160 83 22 131 25 148 7
10 -9 17 -22 17 -30 0 -8 29 -22 69 -34 84 -26 116 -51 175 -139 70 -106 96
-186 105 -327 4 -66 6 -126 3 -133 -2 -7 -1 -41 2 -75 11 -101 38 -121 40 -30
1 40 4 48 20 48 22 0 32 22 41 96 6 47 1 71 -35 182 -22 70 -54 152 -71 183
-16 31 -29 64 -29 74 0 11 -4 21 -9 24 -5 4 -26 36 -46 74 -81 147 -151 202
-263 208 -37 2 -89 -2 -117 -9z"/>
<path d="M4958 12616 l-27 -21 34 -79 c19 -44 39 -84 45 -90 19 -19 23 4 10
57 -7 28 -18 75 -24 103 l-11 52 -27 -22z"/>
<path d="M4091 12295 c-99 -28 -249 -121 -228 -142 4 -3 51 0 105 7 104 13
209 10 220 -7 4 -6 30 -12 58 -15 59 -5 166 -54 206 -92 56 -54 83 -117 172
-398 21 -65 41 -120 47 -123 5 -4 21 7 35 24 17 21 35 31 54 31 24 0 28 4 34
40 3 22 4 53 0 68 -11 50 -55 156 -100 241 -24 46 -44 88 -44 93 0 17 -149
151 -217 195 -123 80 -240 106 -342 78z"/>
<path d="M3647 12145 c-42 -16 -138 -78 -159 -102 -12 -15 -10 -16 12 -9 160
44 180 45 284 12 215 -68 321 -178 396 -411 62 -191 109 -310 121 -310 7 0 17
16 21 35 5 19 16 50 25 69 13 29 14 42 3 88 -34 152 -101 264 -243 402 -138
135 -228 206 -286 226 -54 18 -123 18 -174 0z"/>
<path d="M3549 11984 c-3 -5 -2 -60 1 -123 3 -62 2 -118 -2 -124 -4 -6 -31 13
-70 48 -34 32 -92 72 -128 89 -57 27 -76 31 -150 31 -72 0 -93 -4 -141 -27
-30 -15 -73 -43 -95 -62 l-39 -34 45 -11 c25 -7 97 -32 160 -56 63 -24 162
-62 220 -84 145 -56 255 -120 315 -184 41 -44 55 -69 77 -138 15 -46 30 -102
33 -124 16 -108 26 -112 43 -16 l13 69 -41 79 c-23 43 -65 121 -95 173 -67
117 -103 230 -115 358 -8 94 -22 155 -31 136z"/>
<path d="M2675 11641 c-56 -10 -81 -26 -110 -69 -31 -45 -31 -81 0 -187 23
-80 23 -80 24 -34 1 41 7 53 46 97 58 65 90 78 151 63 139 -35 198 -98 314
-335 49 -101 100 -191 111 -202 12 -10 28 -34 36 -52 7 -18 24 -37 37 -42 13
-5 26 -15 29 -22 2 -7 8 -10 12 -5 17 15 -102 336 -161 437 -65 111 -238 288
-327 336 -34 18 -108 25 -162 15z"/>
<path d="M2142 11370 c-62 -28 -92 -54 -132 -113 l-36 -52 -60 3 c-34 2 -87
-3 -124 -13 -71 -18 -163 -55 -156 -62 2 -3 38 1 78 7 l74 12 118 -46 c210
-82 268 -118 389 -238 59 -58 107 -111 107 -117 0 -17 154 -224 158 -212 2 6
-5 26 -16 43 -11 18 -27 60 -37 93 -31 112 -73 181 -161 264 -102 97 -228 198
-271 219 -45 22 -41 39 14 64 41 18 59 20 143 15 166 -11 259 -47 404 -156
131 -99 187 -173 266 -350 25 -58 52 -107 60 -109 9 -3 11 1 7 11 -3 9 -9 69
-12 134 -4 65 -12 134 -17 153 -21 66 -163 214 -274 285 -41 26 -56 43 -61 65
-5 27 -7 28 -18 14 -11 -16 -17 -14 -72 20 -133 82 -279 108 -371 66z"/>
<path d="M5080 10604 c-630 -305 -1228 -594 -1330 -641 -222 -103 -580 -281
-580 -288 0 -9 51 15 970 450 311 147 644 303 740 347 96 44 189 88 205 98 17
10 275 134 575 275 300 142 553 265 563 273 17 15 24 42 10 41 -5 0 -523 -250
-1153 -555z"/>
<path d="M1333 11036 c-78 -25 -243 -124 -243 -145 0 -20 84 -45 293 -86 201
-39 231 -48 313 -90 166 -84 219 -148 329 -397 26 -60 53 -108 59 -108 7 0 11
33 10 103 -1 119 -14 152 -91 238 -27 30 -69 79 -93 109 -78 96 -209 233 -266
281 -108 90 -221 124 -311 95z"/>
<path d="M855 10782 c-167 -60 -250 -97 -250 -111 0 -9 20 -20 55 -28 30 -8
89 -25 130 -38 41 -13 136 -41 210 -61 174 -46 318 -115 397 -188 47 -43 70
-77 113 -163 66 -129 59 -118 67 -110 9 9 -37 119 -75 182 -17 28 -52 86 -78
130 -56 95 -273 322 -356 372 -77 47 -117 49 -213 15z"/>
<path d="M370 10642 c-65 -22 -100 -40 -100 -51 0 -5 46 -11 103 -13 148 -8
302 -67 457 -176 l25 -17 -25 35 c-14 19 -54 65 -90 101 -119 119 -249 161
-370 121z"/>
<path d="M58 10550 c-11 -6 -18 -23 -18 -41 l0 -29 53 30 c77 43 126 41 177
-7 48 -45 144 -215 166 -293 9 -30 22 -80 31 -110 22 -79 57 -150 97 -194 35
-40 46 -81 46 -177 0 -27 5 -49 10 -49 6 0 10 15 10 33 0 18 5 59 10 90 10 51
9 59 -9 84 -12 16 -31 71 -45 123 -25 100 -143 388 -184 452 -39 60 -112 90
-230 95 -59 2 -104 0 -114 -7z"/>
<path d="M17 10393 c-39 -119 -13 -281 62 -383 l33 -45 -7 50 c-4 28 -22 135
-39 240 l-32 189 -17 -51z"/>
<path d="M5560 9969 c-1916 -929 -2170 -1053 -2167 -1056 4 -4 211 94 1705
801 623 295 1178 556 1233 580 124 55 149 71 149 96 0 11 -3 20 -7 19 -5 0
-415 -198 -913 -440z"/>
<path d="M943 10238 c31 -85 87 -305 87 -347 0 -12 5 -21 11 -21 8 0 10 16 6
53 -4 37 -2 57 8 71 12 16 12 24 -2 60 -9 22 -22 48 -28 56 -7 8 -27 43 -44
78 -17 34 -34 62 -37 62 -3 0 -4 -6 -1 -12z"/>
<path d="M136 9890 c23 -87 101 -197 123 -174 6 5 -11 36 -42 79 -29 39 -60
82 -70 95 l-18 25 7 -25z"/>
<path d="M6740 9729 c-58 -28 -195 -95 -305 -149 -110 -54 -317 -155 -460
-225 -143 -70 -633 -308 -1090 -530 -822 -398 -1056 -513 -1044 -514 7 -1 -31
-19 1354 637 622 294 1249 591 1395 659 146 68 268 127 272 131 5 5 2 16 -5
25 -11 16 -20 14 -117 -34z"/>
<path d="M25 9650 c-3 -5 385 -1188 864 -2627 1215 -3659 2187 -6605 2290
-6943 9 -29 48 -40 57 -16 3 8 1 30 -4 48 -49 157 -305 941 -795 2438 -51 155
-644 1943 -1242 3741 -288 866 -537 1629 -554 1695 -17 65 -80 254 -139 419
-60 165 -181 515 -268 778 -145 437 -161 477 -181 477 -12 0 -25 -4 -28 -10z"/>
<path d="M136 9580 c7 -28 12 -35 18 -29 2 2 -2 15 -10 29 l-15 25 7 -25z"/>
<path d="M350 9238 c0 -3 9 -31 20 -63 11 -32 20 -77 20 -99 0 -25 11 -64 30
-101 16 -33 28 -51 25 -40 -2 11 -9 47 -15 80 -11 67 -80 257 -80 223z"/>
<path d="M6990 8982 c-58 -31 -645 -317 -1305 -637 -1616 -783 -1646 -798
-1642 -802 4 -4 81 32 1532 720 627 297 1220 577 1319 623 98 46 187 91 197
100 18 17 27 55 12 53 -5 -1 -55 -27 -113 -57z"/>
<path d="M476 8798 c4 -13 24 -61 45 -107 22 -46 48 -115 59 -152 12 -38 29
-77 39 -87 10 -9 30 -39 44 -67 14 -27 26 -47 27 -43 1 23 -128 345 -163 405
-41 71 -65 95 -51 51z"/>
<path d="M7105 8221 c-88 -43 -666 -324 -1285 -624 -1570 -760 -1611 -780
-1607 -784 4 -4 61 23 1722 809 732 347 1333 635 1337 642 10 15 10 36 1 35
-5 0 -80 -35 -168 -78z"/>
<path d="M3745 8270 c-3 -6 1 -7 9 -4 18 7 21 14 7 14 -6 0 -13 -4 -16 -10z"/>
<path d="M6855 7876 c-91 -29 -181 -73 -280 -136 -44 -28 -90 -53 -102 -56
-12 -3 -45 2 -74 11 -135 45 -260 -25 -482 -271 -112 -123 -219 -223 -297
-277 -25 -17 -134 -78 -243 -134 -108 -56 -264 -145 -345 -196 -81 -52 -205
-127 -275 -168 -151 -87 -169 -102 -165 -137 4 -36 41 -44 168 -37 203 11 272
43 396 182 37 41 104 103 150 139 45 35 105 94 133 129 69 87 135 137 260 196
58 28 151 73 206 100 151 76 234 77 400 7 125 -53 196 -24 386 157 71 68 148
132 172 144 23 11 83 26 133 34 50 8 106 23 125 32 89 45 163 166 139 226 -31
75 -252 105 -405 55z"/>
<path d="M5155 7816 c-49 -7 -155 -27 -235 -44 -80 -18 -221 -48 -315 -68
-244 -51 -401 -117 -522 -220 -28 -25 -91 -97 -139 -162 -49 -64 -102 -136
-119 -159 -46 -61 -112 -112 -238 -184 -61 -35 -161 -99 -222 -142 -69 -49
-177 -111 -293 -168 -101 -50 -186 -97 -189 -106 -4 -10 4 -25 22 -41 26 -22
35 -24 90 -19 127 12 328 98 457 195 56 43 143 94 218 130 137 66 153 79 202
167 30 53 41 63 113 102 65 34 86 51 113 93 38 59 62 75 203 135 139 59 178
59 148 3 -6 -11 -9 -22 -6 -24 2 -2 32 7 66 21 82 34 163 51 293 64 81 8 130
19 196 45 198 76 274 130 321 229 74 154 43 182 -164 153z"/>
<path d="M7038 7321 c-257 -125 -797 -387 -1200 -581 -914 -440 -1429 -692
-1425 -697 2 -2 208 93 458 211 603 284 2587 1222 2619 1239 23 12 42 58 23
56 -4 0 -218 -103 -475 -228z"/>
<path d="M990 7287 c0 -19 304 -931 307 -920 2 6 -60 203 -137 438 -133 399
-169 502 -170 482z"/>
<path d="M6825 6294 c-1620 -784 -2035 -987 -2032 -991 4 -4 287 129 1861 875
888 420 1161 554 1167 571 6 14 4 21 -4 21 -7 -1 -453 -215 -992 -476z"/>
<path d="M7420 6373 c-96 -16 -549 -237 -720 -351 -58 -38 -182 -108 -275
-154 -189 -94 -212 -108 -370 -218 -60 -43 -171 -115 -245 -160 -269 -165
-740 -522 -740 -561 0 -27 179 86 455 286 147 107 315 197 627 334 242 106
292 121 538 161 211 35 259 49 460 135 181 78 549 294 646 379 37 33 45 46 40
62 -9 31 -41 41 -202 69 -143 25 -164 26 -214 18z"/>
<path d="M7150 5584 c-1837 -890 -2160 -1048 -2156 -1051 8 -8 3049 1435 3064
1455 6 9 12 19 12 24 0 4 -6 8 -12 7 -7 0 -416 -196 -908 -435z"/>
<path d="M1671 5723 c-1 -17 50 -145 56 -140 2 3 -10 38 -26 78 -17 41 -30 68
-30 62z"/>
<path d="M1531 5608 c-1 -19 79 -251 85 -245 2 2 -16 62 -40 133 -25 71 -45
121 -45 112z"/>
<path d="M8235 5458 c-55 -28 -440 -215 -855 -415 -1087 -525 -2031 -985
-2027 -989 4 -4 500 228 1812 851 484 230 947 449 1030 487 146 67 165 79 165
106 0 20 -20 14 -125 -40z"/>
<path d="M8545 4739 c-22 -11 -506 -246 -1075 -521 -569 -275 -1190 -576
-1380 -668 -331 -160 -562 -276 -530 -266 21 6 468 217 1854 874 914 433 1181
563 1187 580 10 28 -3 28 -56 1z"/>
<path d="M1842 4700 c51 -155 83 -241 85 -233 4 11 -73 233 -84 242 -3 3 -4
-1 -1 -9z"/>
<path d="M2084 4625 c4 -11 13 -43 21 -71 7 -29 20 -65 28 -80 8 -16 119 -301
247 -634 262 -681 260 -674 265 -668 15 15 -531 1439 -563 1468 -3 3 -2 -4 2
-15z"/>
<path d="M8827 4508 c-32 -24 -113 -262 -132 -386 -28 -193 -51 -250 -150
-378 -35 -44 -86 -118 -114 -165 -81 -132 -112 -169 -186 -221 -60 -41 -88
-53 -190 -79 -66 -16 -145 -31 -176 -33 -58 -3 -189 -51 -189 -69 0 -5 -24
-35 -54 -67 -36 -39 -57 -72 -64 -102 -20 -74 -43 -101 -131 -147 -67 -35 -81
-46 -81 -66 0 -20 6 -25 38 -31 20 -4 55 -15 76 -25 70 -33 224 -21 258 21 16
20 132 67 308 125 193 63 423 199 542 321 113 116 113 124 -3 70 -260 -120
-528 -228 -571 -230 -14 -1 -24 -4 -22 -7 5 -9 -25 -21 -36 -14 -11 7 -119
-40 -328 -141 -163 -79 -229 -101 -220 -72 3 7 52 34 109 59 57 25 244 113
414 196 171 83 321 154 335 158 14 4 184 86 378 183 194 96 355 173 357 170 9
-8 -150 -117 -253 -173 -55 -30 -131 -67 -168 -82 -37 -14 -63 -28 -56 -31 6
-2 52 15 103 37 95 42 122 50 101 29 -21 -21 -13 -31 22 -25 48 8 377 129 484
178 119 54 121 58 72 192 -21 57 -56 135 -78 173 -22 38 -84 157 -139 264
-115 223 -204 374 -224 378 -8 1 -22 -3 -32 -10z"/>
<path d="M8475 3280 c-3 -6 1 -7 9 -4 18 7 21 14 7 14 -6 0 -13 -4 -16 -10z"/>
<path d="M8105 3105 c-60 -29 -106 -54 -102 -54 10 -1 209 89 222 100 20 19
-14 6 -120 -46z"/>
<path d="M7175 2558 c-246 -68 -278 -88 -141 -88 57 0 78 5 125 30 65 35 123
80 101 78 -8 0 -46 -9 -85 -20z"/>
<path d="M6425 2461 c-72 -26 -151 -60 -176 -74 -65 -38 -124 -58 -137 -45 -8
8 -24 3 -56 -16 -55 -32 -58 -36 -40 -60 13 -19 18 -17 116 31 57 28 175 83
263 123 229 105 238 117 30 41z"/>
<path d="M5945 2116 c-27 -13 -84 -31 -125 -41 -41 -10 -141 -35 -221 -56
-153 -41 -184 -46 -174 -29 15 24 -28 19 -67 -8 -67 -46 -85 -53 -209 -88 -64
-18 -157 -46 -205 -63 -84 -28 -273 -82 -678 -192 -99 -27 -194 -49 -210 -49
-17 -1 -58 -14 -91 -31 l-60 -29 45 5 45 4 -55 -20 c-69 -26 -122 -36 -100
-19 12 9 8 10 -20 6 -19 -4 -43 -15 -55 -26 -11 -10 -38 -27 -60 -36 -56 -23
-206 -66 -232 -66 -18 0 -20 -4 -12 -22 l10 -22 66 33 c36 18 73 33 82 33 21
0 170 36 246 60 33 11 132 40 220 66 88 25 163 51 166 57 4 5 14 7 24 4 10 -5
14 -3 9 5 -5 8 0 9 15 5 31 -8 200 30 505 113 142 38 260 70 263 70 3 0 3 -7
-1 -15 -11 -29 42 -12 178 56 33 16 71 29 85 28 20 0 8 -9 -48 -35 -40 -19
-72 -37 -69 -39 6 -6 119 39 248 101 63 30 121 54 127 54 27 0 94 33 85 42 -5
5 -43 -3 -93 -21 -105 -37 -239 -74 -246 -68 -9 9 30 24 145 57 62 17 129 38
149 46 23 10 38 12 42 5 4 -6 35 3 81 24 41 19 89 35 106 35 16 0 34 4 40 10
5 5 45 23 88 38 65 24 74 30 55 35 -33 9 -37 8 -94 -17z m-810 -285 c-11 -11
-236 -74 -241 -68 -4 3 220 74 241 76 6 1 6 -2 0 -8z m-915 -232 c-67 -24
-211 -62 -216 -56 -4 3 113 41 206 66 61 16 67 10 10 -10z"/>
<path d="M6023 2028 c13 -29 77 -63 77 -42 0 8 -6 14 -13 14 -8 0 -24 11 -37
25 -29 31 -42 32 -27 3z"/>
<path d="M5962 2028 c3 -7 15 -15 27 -16 16 -3 22 1 19 10 -3 7 -15 15 -27 16
-16 3 -22 -1 -19 -10z"/>
<path d="M3140 1905 c0 -5 5 -17 10 -25 5 -8 10 -10 10 -5 0 6 -5 17 -10 25
-5 8 -10 11 -10 5z"/>
<path d="M5552 1422 c-90 -41 -124 -62 -127 -77 -2 -11 -6 -38 -9 -60 -4 -31
-3 -34 3 -15 5 14 12 36 15 50 4 20 25 35 107 75 192 95 201 114 11 27z"/>
<path d="M3370 1341 c0 -17 89 -224 101 -236 10 -10 -33 112 -52 146 -5 10 -9
25 -9 34 0 9 -9 28 -20 42 -11 14 -20 20 -20 14z"/>
<path d="M4995 1142 c-150 -59 -448 -225 -590 -328 -44 -32 -97 -69 -117 -83
-21 -13 -36 -26 -34 -29 12 -12 178 75 310 162 82 54 221 136 308 182 187 100
228 124 208 124 -8 -1 -47 -13 -85 -28z"/>
<path d="M4061 1067 c-46 -18 -86 -38 -89 -44 -7 -24 33 -13 113 32 95 53 89
55 -24 12z"/>
<path d="M3600 821 c0 -5 5 -13 10 -16 6 -3 10 -2 10 4 0 5 -4 13 -10 16 -5 3
-10 2 -10 -4z"/>
<path d="M4270 529 c-288 -152 -364 -198 -252 -153 136 55 579 304 540 304 -2
0 -131 -68 -288 -151z"/>
</g>
</svg>
