<?xml version="1.0" encoding="UTF-8" standalone="no"?>
<!-- Created with Inkscape (http://www.inkscape.org/) -->
<svg id="svg2" xmlns:rdf="http://www.w3.org/1999/02/22-rdf-syntax-ns#" xmlns="http://www.w3.org/2000/svg" height="127.96" width="144.04" version="1.0" xmlns:cc="http://creativecommons.org/ns#" xmlns:xlink="http://www.w3.org/1999/xlink" xmlns:dc="http://purl.org/dc/elements/1.1/">
 <metadata id="metadata2017">
  <rdf:RDF>
   <cc:Work rdf:about="">
    <dc:format>image/svg+xml</dc:format>
    <dc:type rdf:resource="http://purl.org/dc/dcmitype/StillImage"/>
    <cc:license rdf:resource="http://creativecommons.org/licenses/GPL/2.0/"/>
    <dc:description/>
    <dc:rights>
     <cc:Agent>
      <dc:title/>
     </cc:Agent>
    </dc:rights>
    <dc:title>Icon for projects</dc:title>
    <dc:date>2007/06/23</dc:date>
    <dc:creator>
     <cc:Agent>
      <dc:title>STyx</dc:title>
     </cc:Agent>
    </dc:creator>
    <dc:source>Portal.svg + Icon_tools.svg</dc:source>
    <dc:subject>
     <rdf:Bag>
      <rdf:li>D</rdf:li>
     </rdf:Bag>
    </dc:subject>
   </cc:Work>
   <cc:License rdf:about="http://creativecommons.org/licenses/GPL/2.0/">
    <cc:permits rdf:resource="http://web.resource.org/cc/Reproduction"/>
    <cc:permits rdf:resource="http://web.resource.org/cc/Distribution"/>
    <cc:requires rdf:resource="http://web.resource.org/cc/Notice"/>
    <cc:permits rdf:resource="http://web.resource.org/cc/DerivativeWorks"/>
    <cc:requires rdf:resource="http://web.resource.org/cc/ShareAlike"/>
    <cc:requires rdf:resource="http://web.resource.org/cc/SourceCode"/>
   </cc:License>
  </rdf:RDF>
 </metadata>
 <defs id="defs5">
  <linearGradient id="linearGradient4569">
   <stop id="stop4571" stop-color="#fff" offset="0"/>
   <stop id="stop4573" stop-color="#fff" stop-opacity="0" offset="1"/>
  </linearGradient>
  <linearGradient id="linearGradient4579" x1="32.485" xlink:href="#linearGradient4569" gradientUnits="userSpaceOnUse" y1="18.173" gradientTransform="matrix(.79625 0 0 .74701 64.119 1.0846)" x2="39.086" y2="35.937"/>
  <linearGradient id="linearGradient4575" x1="32.485" xlink:href="#linearGradient4569" gradientUnits="userSpaceOnUse" y1="18.173" gradientTransform="matrix(.79625 0 0 .74701 9.7818 4.9946)" x2="39.086" y2="35.937"/>
  <radialGradient id="radialGradient2647" gradientUnits="userSpaceOnUse" cy="333.28" cx="381.42" gradientTransform="matrix(.20013 -.0015475 .0015095 .16311 -2.1186 19.044)" r="316.52">
   <stop id="stop2599" stop-color="#f4f4f6" offset="0"/>
   <stop id="stop2601" stop-color="#bbb" offset="1"/>
  </radialGradient>
 </defs>
 <g id="puzzle" fill-rule="evenodd" transform="matrix(.99268 0 0 1.0228 -2.5642 -12.091)">
  <path id="path9237" stroke-linejoin="round" style="color:#000000" d="m83.769 16.042c-0.55764-0.02399-1.0519-0.0072-1.4688 0.03125-3.3183 0.30617-4.7902 2.3561-5.125 4.9062-0.67402 5.1345 0.05484 10.053-0.6875 15.094-0.39057 2.6522-2.8329 4.1627-5.3438 4.4688-2.5108 0.30602-3.7948-1.6179-4.6875-3.25-2.021-3.6949 0.72515-8.1187-1.5625-12.25s-4.5808-3.4652-7.5938-4.2812c-8.0956-2.1927-22.097-0.94946-25.875 0.21875-3.0751 0.95076-9.0869 3.6832-8.9375 7.75 0.08438 2.2961 2.9667 7.7604 4.25 16.125s0.875 17.312 0.875 17.312-10.041-3.1386-15.844-1.8125c-5.8028 1.3261-7.2567 3.2248-7.3437 7.125-0.055796 2.4992 0.82002 12.997 7.125 16.312 6.305 3.3152 18.094 3.9063 18.094 3.9062 0 0-8.481 31.367-6.0312 36.094 1.6779 3.2373 5.3913 2.8531 10.469 4.2812 5.4178 1.5238 5.6971 0.86934 10.719 3.0625 5.0217 2.1932 5.1786 1.4053 9.375 2.8438 0.89274 0.30603 5.4824 1.8128 7.1562 0.84375 1.4521-0.84068 3.2189 0.29436 4-4.5 0.78115-4.7944-1.6561-9.9952-0.875-14.688 0.78115-4.6924 4.1445-4.8101 6.4688-4.9062 2.4677-0.10209 5.1899 0.16468 6.25 4.5s-0.50216 9.1697 0 13.25c0.50217 4.0803 1.1548 2.6403 2 3.0625 1.2064 0.60263 9.4185 1.7816 17.844 0.8125 8.4252-0.96907 14.73-3.7663 15.875-4.6875 0.51801-0.41688 3.8795-0.71098 4.4375-4.2812 1.5093-9.6574 0.46875-34.469 0.46875-34.469s7.2027 1.0431 12.5 0.8125c3.5152-0.15301 6.623 0.29663 8.6875-1.4375 2.8879-2.4258 3.7256-2.8209 4.5625-7.1562 0.83694-4.3353-2.945-15.238-9.25-17.125-6.305-1.8871-17.406 0.21875-17.406 0.21875s2.2467-31.917 0-35.906c-1.8663-3.3141-5.8516-4.6898-14.5-7.75-7.5674-2.6777-14.722-4.3633-18.625-4.5312zm-26.094 30.656c6.1198-0.18482 12.634 3.2725 15.812 8.9375 1.4706 2.6207 1.8211 3.9646 2.0312 7.9688 0.22506 4.2879 0.43059 4.9885 1.8125 6.3125 0.60374 0.6122 0.46017 0.45285 0.96875 0.96875 10.564-10.416 11.754-12.115 11.812-12.844 0.22129-2.7597 0.4594-3.4729 3.375-5.0312 3.4164-1.8261 6.0695-2.9114 6.2188-2.5938 0.15563 0.38162 2.4036 2.1091 2.3437 2.9375-0.0599 0.82844-2.6524 5.8225-3.875 7.6562-1.237 1.8552-0.97133 0.50474-3.9375 1.0938-0.8051 0.15987-1.9068 1.3838-12.625 12.125 0.59232 0.60212 2.1345 2.1918 2.375 2.4375-0.80427-0.80879-2.1333-2.1295 8.6562 8.75 6.5209 6.5129 10.853 10.756 10.375 11.344-0.53033 1.345-10.38 11.392-11.312 11.375-0.33486 0.35351-5.198-4.4233-10.562-9.75-8.2722-8.1186-8.0662-7.9512-7.8438-7.7188-0.0031 0.01922-0.39759-0.34294-1.5625-1.4062-0.44761 0.39504-0.96451 1.0261-1.625 2-0.33627 0.000001-1.0386 1.2822-3 3.8125-4.8276 6.2281-11.438 12.948-14.938 15.156-4.0655 2.5652-6.4689 2.4614-9.1875-0.375-1.1522-1.2021-2.2477-2.7026-2.4375-3.3438-1.0194-3.4433 6.193-12.305 16.844-20.688 3.4223-2.2282 5.0666-3.3557 5.6875-4.7188-0.47294-0.25537-1.5141-0.375-3.4375-0.375-10.201 0-17.798-7.2643-17.812-17.062-0.0031-2.174 0.37927-4.8571 0.84375-5.9688 1.3622-3.2601 2.4665-2.7506 8.125 2.9375 5.1349 5.1617 6.0963 6.736 8.7188 3.875 2.6655-2.908 1.8-3.5389-3.2812-8.5938-5.7406-5.7108-6.9154-6.7735-3.5312-8.1875 1.5655-0.6541 3.2552-0.9795 4.9688-1.0312z" stroke="#3c3e4b" stroke-linecap="round" stroke-width="3.625" fill="#3c3e4b"/>
  <path id="path2934" stroke-linejoin="round" style="color:#000000" d="m86.812 12.781c-0.55764-0.02399-1.0519-0.0072-1.4688 0.03125-3.3183 0.30617-4.7902 2.3561-5.125 4.9062-0.67402 5.1345 0.05484 10.053-0.6875 15.094-0.39057 2.6522-2.8329 4.1627-5.3438 4.4688-2.5108 0.30602-3.7948-1.6179-4.6875-3.25-2.021-3.6949 0.72515-8.1187-1.5625-12.25s-4.5808-3.4652-7.5938-4.2812c-8.0956-2.1927-22.097-0.94946-25.875 0.21875-3.0751 0.95076-9.0869 3.6832-8.9375 7.75 0.08438 2.2961 2.9667 7.7604 4.25 16.125s0.875 17.312 0.875 17.312-10.041-3.1386-15.844-1.8125c-5.8028 1.3261-7.2567 3.2248-7.3438 7.125-0.055796 2.4992 0.82002 12.997 7.125 16.312 6.305 3.3152 18.094 3.9063 18.094 3.9062 0 0-8.481 31.367-6.0312 36.094 1.6779 3.2373 5.3913 2.8531 10.469 4.2812 5.4178 1.5238 5.6971 0.86934 10.719 3.0625 5.0217 2.1932 5.1786 1.4053 9.375 2.8438 0.89274 0.30603 5.4824 1.8128 7.1562 0.84375 1.4521-0.84068 3.2189 0.29436 4-4.5 0.78115-4.7944-1.6561-9.9952-0.875-14.688 0.78115-4.6924 4.1445-4.8101 6.4688-4.9062 2.4677-0.10209 5.1899 0.16468 6.25 4.5s-0.50216 9.1697 0 13.25c0.50217 4.0803 1.1548 2.6403 2 3.0625 1.2064 0.60263 9.4185 1.7816 17.844 0.8125 8.4252-0.96907 14.73-3.7663 15.875-4.6875 0.51801-0.41688 3.8795-0.71098 4.4375-4.2812 1.5093-9.6574 0.46875-34.469 0.46875-34.469s7.2027 1.0431 12.5 0.8125c3.5152-0.15301 6.623 0.29663 8.6875-1.4375 2.8879-2.4258 3.7256-2.8209 4.5625-7.1562 0.83694-4.3353-2.945-15.238-9.25-17.125-6.305-1.8871-17.406 0.21875-17.406 0.21875s2.2467-31.917 0-35.906c-1.8663-3.3141-5.8516-4.6898-14.5-7.75-7.5674-2.6777-14.722-4.3633-18.625-4.5312zm-26.093 30.657c6.1198-0.18482 12.634 3.2725 15.812 8.9375 1.4706 2.6207 1.8211 3.9646 2.0312 7.9688 0.22506 4.2879 0.43059 4.9885 1.8125 6.3125 0.60374 0.6122 0.46017 0.45285 0.96875 0.96875 10.564-10.416 11.754-12.115 11.812-12.844 0.22129-2.7597 0.4594-3.4729 3.375-5.0312 3.4164-1.8261 6.0695-2.9114 6.2188-2.5938 0.15563 0.38162 2.4036 2.1091 2.3438 2.9375-0.0599 0.82844-2.6524 5.8225-3.875 7.6562-1.237 1.8552-0.97133 0.50474-3.9375 1.0938-0.8051 0.15987-1.9068 1.3838-12.625 12.125 0.59232 0.60212 2.1345 2.1918 2.375 2.4375-0.80427-0.80879-2.1333-2.1295 8.6562 8.75 6.5209 6.5129 10.853 10.756 10.375 11.344-0.53033 1.345-10.38 11.392-11.312 11.375-0.33486 0.35351-5.198-4.4233-10.562-9.75-8.2722-8.1186-8.0662-7.9512-7.8438-7.7188-0.0031 0.01922-0.39759-0.34294-1.5625-1.4062-0.44761 0.39504-0.96451 1.0261-1.625 2-0.33627 0.000001-1.0386 1.2822-3 3.8125-4.8276 6.2281-11.438 12.948-14.938 15.156-4.0655 2.5652-6.4689 2.4614-9.1875-0.375-1.1522-1.2021-2.2477-2.7026-2.4375-3.3438-1.0194-3.4433 6.193-12.305 16.844-20.688 3.4223-2.2282 5.0666-3.3557 5.6875-4.7188-0.47294-0.25537-1.5141-0.375-3.4375-0.375-10.201 0-17.798-7.2643-17.812-17.062-0.0031-2.174 0.37927-4.8571 0.84375-5.9688 1.3622-3.2601 2.4665-2.7506 8.125 2.9375 5.1349 5.1617 6.0963 6.736 8.7188 3.875 2.6655-2.908 1.8-3.5389-3.2812-8.5938-5.7406-5.7108-6.9154-6.7735-3.5312-8.1875 1.5655-0.6541 3.2552-0.9795 4.9688-1.0312z" stroke="#0d0e11" stroke-linecap="round" stroke-width="1.9253" fill="url(#radialGradient2647)"/>
  <path id="path4565" style="color:#000000" d="m31.987 39.046c-1.2187-5.6369-3.3093-12.309-3.3765-14.024-0.119-3.038 5.4535-4.6842 7.9021-5.3944 3.0086-0.87266 14.168-1.7903 20.614-0.1524 2.3991 0.6096 4.2206 0.1143 6.0422 3.2004 1.8215 3.0861-4.0858 3.1213-7.2872 4.1047-7.6265 2.3426-22.317 19.565-23.895 12.265z" fill="url(#linearGradient4575)"/>
  <path id="path4577" style="color:#000000" d="m83.546 34.739c-1.2187-5.6369 0.26211-14.69 0.19493-16.405-0.119-3.038 4.3092-3.0779 12.267-1.4262 5.313 1.1028 10.2 3.7652 16.646 6.5936 2.2667 0.99459 3.0301 1.7016 4.8517 4.7877 1.8215 3.0861-1.308 5.8991-4.5095 6.8825-7.6265 2.3426-27.872 6.8668-29.45-0.43295z" fill="url(#linearGradient4579)"/>
 </g>
</svg>
